<svg width="0" height="0" class="hidden">
  <symbol fill="none" xmlns="http://www.w3.org/2000/svg" viewBox="0 0 16 27" id="calling">
    <path d="M12.2223 0.675049H3.33346C1.48901 0.675049 0.00012207 2.22689 0.00012207 4.14931V22.6787C0.00012207 24.6012 1.48901 26.153 3.33346 26.153H12.2223C14.0668 26.153 15.5557 24.6012 15.5557 22.6787V4.14931C15.5557 2.22689 14.0668 0.675049 12.2223 0.675049ZM10.0001 23.8368H5.55568V22.6787H10.0001V23.8368ZM13.6112 20.3625H1.94457V4.14931H13.6112V20.3625Z" fill="#FF5722"></path>
  </symbol>
  <symbol fill="none" xmlns="http://www.w3.org/2000/svg" viewBox="0 0 22 27" id="location">
    <path d="M10.4412 26.525C10.6679 26.6864 10.9396 26.7732 11.2182 26.7732C11.4969 26.7732 11.7685 26.6864 11.9953 26.525C12.4026 26.2377 21.975 19.3456 21.9362 10.7422C21.9362 4.84937 17.1278 0.0546875 11.2182 0.0546875C5.30861 0.0546875 0.500271 4.84937 0.500271 10.7355C0.461418 19.3456 10.0339 26.2377 10.4412 26.525ZM11.2182 2.72656C15.6514 2.72656 19.2567 6.32157 19.2567 10.7489C19.2848 16.6778 13.3779 22.0015 11.2182 23.7475C9.05989 22.0001 3.15162 16.6751 3.17976 10.7422C3.17976 6.32157 6.78501 2.72656 11.2182 2.72656Z" fill="#FF5722"></path>
  </symbol>
  <symbol fill="none" xmlns="http://www.w3.org/2000/svg" viewBox="0 0 27 22" id="message">
    <path d="M25.8125 0.601562H1.4375C0.918945 0.601562 0.5 1.02051 0.5 1.53906V20.2891C0.5 20.8076 0.918945 21.2266 1.4375 21.2266H25.8125C26.3311 21.2266 26.75 20.8076 26.75 20.2891V1.53906C26.75 1.02051 26.3311 0.601562 25.8125 0.601562ZM24.6406 3.84766V19.1172H2.60938V3.84766L1.80078 3.21777L2.95215 1.73828L4.20605 2.71387H23.0469L24.3008 1.73828L25.4521 3.21777L24.6406 3.84766ZM23.0469 2.71094L13.625 10.0352L4.20312 2.71094L2.94922 1.73535L1.79785 3.21484L2.60645 3.84473L12.6143 11.626C12.9021 11.8496 13.2561 11.9709 13.6206 11.9709C13.9851 11.9709 14.3391 11.8496 14.627 11.626L24.6406 3.84766L25.4492 3.21777L24.2979 1.73828L23.0469 2.71094Z" fill="#FF5722"></path>
  </symbol>
</svg>