<svg width="0" height="0" class="hidden">
  <symbol fill="none" xmlns="http://www.w3.org/2000/svg" viewBox="0 0 35 28" id="twitter">
    <path d="M34.1449 3.27758C32.9201 3.80592 31.5873 4.18617 30.2144 4.33426C31.6398 3.48746 32.7072 2.14964 33.2163 0.571823C31.8788 1.3675 30.4135 1.92544 28.8855 2.22089C28.2469 1.53816 27.4745 0.994256 26.6165 0.623086C25.7584 0.251916 24.8332 0.0614281 23.8983 0.0634932C20.1158 0.0634932 17.0739 3.12948 17.0739 6.89192C17.0739 7.42027 17.1379 7.94861 17.242 8.45694C11.5783 8.16075 6.52702 5.45499 3.16884 1.3123C2.55695 2.35744 2.23629 3.54746 2.24024 4.75854C2.24024 7.12808 3.44502 9.21743 5.28221 10.4462C4.19953 10.4036 3.1422 10.106 2.19621 9.57767V9.66172C2.19621 12.9799 4.54173 15.7297 7.66776 16.3621C7.08082 16.5145 6.47702 16.5925 5.8706 16.5942C5.42631 16.5942 5.00604 16.5502 4.58176 16.4902C5.44632 19.1959 7.96395 21.1612 10.9619 21.2252C8.61638 23.0624 5.67847 24.1431 2.4884 24.1431C1.91603 24.1431 1.38769 24.1231 0.839333 24.0591C3.8653 26.0003 7.45563 27.121 11.3221 27.121C23.8743 27.121 30.7427 16.7223 30.7427 7.69645C30.7427 7.40025 30.7427 7.10406 30.7227 6.80787C32.0516 5.83524 33.2163 4.63046 34.1449 3.27758Z" fill="#FF5722"></path>
  </symbol>
  <symbol fill="none" xmlns="http://www.w3.org/2000/svg" viewBox="0 0 33 33" id="facebook">
    <path d="M31.2103 0.582031H1.75121C1.04275 0.582031 0.470383 1.1544 0.470383 1.86286V31.322C0.470383 32.0304 1.04275 32.6028 1.75121 32.6028H31.2103C31.9188 32.6028 32.4912 32.0304 32.4912 31.322V1.86286C32.4912 1.1544 31.9188 0.582031 31.2103 0.582031ZM27.5119 9.9281H24.9543C22.949 9.9281 22.5607 10.8807 22.5607 12.2816V15.3676H27.3478L26.7234 20.1988H22.5607V32.6028H17.5695V20.2028H13.3948V15.3676H17.5695V11.8053C17.5695 7.67063 20.0951 5.41717 23.7855 5.41717C25.5547 5.41717 27.0716 5.54925 27.5159 5.60929V9.9281H27.5119Z" fill="#FF5722"></path>
  </symbol>
  <symbol fill="none" xmlns="http://www.w3.org/2000/svg" viewBox="0 0 33 33" id="linkdein">
    <path d="M31.1981 0.582031H1.73898C1.03052 0.582031 0.458145 1.1544 0.458145 1.86286V31.322C0.458145 32.0304 1.03052 32.6028 1.73898 32.6028H31.1981C31.9066 32.6028 32.4789 32.0304 32.4789 31.322V1.86286C32.4789 1.1544 31.9066 0.582031 31.1981 0.582031ZM9.95631 27.8677H5.20523V12.5858H9.95631V27.8677ZM7.58277 10.4965C7.03812 10.4965 6.5057 10.335 6.05285 10.0324C5.59999 9.72978 5.24703 9.29969 5.0386 8.79651C4.83017 8.29332 4.77564 7.73962 4.88189 7.20544C4.98815 6.67126 5.25042 6.18058 5.63555 5.79546C6.02067 5.41033 6.51135 5.14806 7.04553 5.0418C7.57971 4.93555 8.13341 4.99008 8.6366 5.19851C9.13978 5.40694 9.56987 5.7599 9.87246 6.21276C10.175 6.66561 10.3366 7.19803 10.3366 7.74268C10.3326 9.26366 9.09975 10.4965 7.58277 10.4965ZM27.7439 27.8677H22.9968V20.4349C22.9968 18.6618 22.9648 16.3843 20.5272 16.3843C18.0576 16.3843 17.6773 18.3135 17.6773 20.3068V27.8677H12.9342V12.5858H17.4892V14.6752H17.5532C18.1856 13.4744 19.7347 12.2056 22.0482 12.2056C26.8593 12.2056 27.7439 15.3716 27.7439 19.4863V27.8677Z" fill="#FF5722"></path>
  </symbol>
</svg>