<svg width="0" height="0" class="hidden">
  <symbol fill="none" xmlns="http://www.w3.org/2000/svg" viewBox="0 0 16 16" id="delete">
    <g clip-path="url(#clip0_124_112)">
      <path d="M3.33103 3.47607L3.92586 13.4071C3.95411 13.9809 4.35414 14.4002 4.87758 14.4002H10.35C10.8755 14.4002 11.2681 13.9809 11.3017 13.4071L11.8965 3.47607" stroke="#CACACA" stroke-width="1.5" stroke-linecap="round" stroke-linejoin="round"></path>
      <path d="M2.37931 3.47607H12.8483H2.37931Z" fill="#CACACA"></path>
      <path d="M2.37931 3.47607H12.8483" stroke="#CACACA" stroke-width="1.5" stroke-miterlimit="10" stroke-linecap="round"></path>
      <path d="M9.75517 5.46216L9.51724 12.4139M5.71034 3.47595V2.23458C5.71007 2.13668 5.72834 2.0397 5.76412 1.9492C5.79989 1.85871 5.85246 1.77649 5.9188 1.70726C5.98513 1.63804 6.06393 1.58319 6.15065 1.54586C6.23738 1.50853 6.33032 1.48946 6.42414 1.48975H8.80345C8.89726 1.48946 8.9902 1.50853 9.07693 1.54586C9.16365 1.58319 9.24245 1.63804 9.30879 1.70726C9.37512 1.77649 9.42769 1.85871 9.46347 1.9492C9.49924 2.0397 9.51751 2.13668 9.51724 2.23458V3.47595H5.71034ZM7.61379 5.46216V12.4139V5.46216ZM5.47241 5.46216L5.71034 12.4139L5.47241 5.46216Z" stroke="#CACACA" stroke-width="1.5" stroke-linecap="round" stroke-linejoin="round"></path>
    </g>
    <defs>
      <clipPath id="clip0_124_112">
        <rect width="15.2276" height="15.8897" fill="white"></rect>
      </clipPath>
    </defs>
  </symbol>
  <symbol fill="none" xmlns="http://www.w3.org/2000/svg" viewBox="0 0 15 11" id="seen">
    <path d="M11.8115 2.38163C10.5112 1.45122 9.11957 0.979492 7.67562 0.979492C6.37622 0.979492 5.10954 1.38294 3.91066 2.1737C2.70167 2.97284 1.51648 4.42432 0.54483 5.94501C1.3306 7.31053 2.40545 8.71453 3.52492 9.51956C4.80915 10.4425 6.20551 10.9105 7.67562 10.9105C9.13295 10.9105 10.5263 10.4428 11.8186 9.52049C12.9562 8.70708 14.0388 7.30494 14.8207 5.94501C14.0361 4.59718 12.95 3.1966 11.8115 2.38163ZM7.68276 8.92432C7.11806 8.92432 6.56604 8.74959 6.09651 8.42222C5.62698 8.09484 5.26103 7.62954 5.04493 7.08514C4.82882 6.54074 4.77228 5.9417 4.88245 5.36378C4.99262 4.78585 5.26455 4.25498 5.66385 3.83832C6.06315 3.42166 6.5719 3.1379 7.12574 3.02295C7.67959 2.90799 8.25367 2.96699 8.77539 3.19249C9.2971 3.41798 9.74302 3.79985 10.0567 4.28979C10.3705 4.77974 10.5379 5.35576 10.5379 5.94501C10.5371 6.73489 10.236 7.49217 9.70072 8.0507C9.16545 8.60924 8.43973 8.92342 7.68276 8.92432Z" fill="#CACACA"></path>
  </symbol>
  <symbol fill="none" xmlns="http://www.w3.org/2000/svg" viewBox="0 0 13 13" id="like">
    <path d="M6.38658 12.9036C6.19555 12.9033 6.00901 12.8431 5.85123 12.7307C3.51386 11.075 2.50176 9.93978 1.94352 9.23002C0.75386 7.71709 0.184313 6.16381 0.200373 4.48174C0.21911 2.55419 1.70112 0.986328 3.50405 0.986328C4.81504 0.986328 5.72305 1.75691 6.25185 2.39871C6.2686 2.41883 6.2893 2.43497 6.31254 2.44603C6.33579 2.45709 6.36103 2.46281 6.38658 2.46281C6.41213 2.46281 6.43737 2.45709 6.46062 2.44603C6.48386 2.43497 6.50456 2.41883 6.52131 2.39871C7.05011 1.75629 7.95811 0.986328 9.26911 0.986328C11.072 0.986328 12.554 2.55419 12.5728 4.48205C12.5888 6.16443 12.0187 7.71771 10.8296 9.23033C10.2714 9.94009 9.2593 11.0753 6.92192 12.731C6.76411 12.8433 6.57758 12.9034 6.38658 12.9036Z" fill="#CACACA"></path>
  </symbol>
  <symbol fill="none" xmlns="http://www.w3.org/2000/svg" viewBox="0 0 16 16" id="edit">
    <path d="M11.9724 6.95197V12.6623C11.9724 12.8253 11.9416 12.9868 11.8818 13.1374C11.8221 13.288 11.7344 13.4248 11.624 13.5401C11.5135 13.6554 11.3823 13.7468 11.238 13.8092C11.0937 13.8716 10.939 13.9037 10.7827 13.9037H3.64482C3.3293 13.9037 3.02671 13.7729 2.8036 13.5401C2.5805 13.3073 2.45516 12.9915 2.45516 12.6623V5.21404C2.45516 4.8848 2.5805 4.56905 2.8036 4.33625C3.02671 4.10344 3.3293 3.97266 3.64482 3.97266H8.6259" stroke="#CACACA" stroke-width="1.5" stroke-linecap="round" stroke-linejoin="round"></path>
    <path d="M14.231 1.65269C14.1875 1.60286 14.1348 1.56274 14.0761 1.53476C14.0173 1.50678 13.9538 1.49152 13.8892 1.48989C13.8247 1.48827 13.7605 1.50032 13.7005 1.52531C13.6406 1.5503 13.5861 1.58772 13.5404 1.63531L13.1725 2.01734C13.1279 2.0639 13.1028 2.12702 13.1028 2.19284C13.1028 2.25866 13.1279 2.32179 13.1725 2.36834L13.5097 2.71965C13.5318 2.74283 13.5581 2.76122 13.5871 2.77377C13.616 2.78632 13.647 2.79278 13.6784 2.79278C13.7097 2.79278 13.7407 2.78632 13.7697 2.77377C13.7986 2.76122 13.8249 2.74283 13.847 2.71965L14.2057 2.34724C14.3871 2.15824 14.4041 1.85038 14.231 1.65269ZM12.4286 2.7932L7.05972 8.38562C7.02717 8.41945 7.00351 8.46145 6.99102 8.50759L6.74268 9.27942C6.73673 9.30036 6.73631 9.32259 6.74146 9.34376C6.74661 9.36493 6.75714 9.38426 6.77194 9.39971C6.78675 9.41515 6.80527 9.42614 6.82556 9.43152C6.84585 9.43689 6.86715 9.43645 6.88722 9.43024L7.6263 9.17111C7.67051 9.15807 7.71076 9.13338 7.74318 9.09942L13.1026 3.49645C13.1522 3.44415 13.18 3.37356 13.18 3.3C13.18 3.22644 13.1522 3.15584 13.1026 3.10355L12.8066 2.7932C12.7565 2.74099 12.6885 2.71167 12.6176 2.71167C12.5468 2.71167 12.4788 2.74099 12.4286 2.7932Z" fill="#CACACA"></path>
  </symbol>
</svg>